<svg xmlns="http://www.w3.org/2000/svg" width="52.074" height="60"><defs><style>.a{fill:#121212}</style></defs><g><path class="a" d="M16.412 4.957h18.134c.549 0 .993.741.993 1.655s-.444 1.655-.993 1.655H16.412c-.548 0-.993-.741-.993-1.655s.445-1.655.993-1.655z"/></g><g><path class="a" d="M16.412.002h18.134c.549 0 .993.741.993 1.655s-.444 1.655-.993 1.655H16.412c-.548 0-.993-.741-.993-1.655s.445-1.655.993-1.655z"/></g><path d="M15.693 9.06l-.136.523a41.073 41.073 0 01-4.493 10.577 16.744 16.744 0 00-2.342 8.569c.011 8.877 7.011 15.766 16.284 16.021a17.074 17.074 0 0012.5-4.71 15.656 15.656 0 004.731-11.33 16.733 16.733 0 00-2.4-8.651 38.316 38.316 0 01-4.34-10.119l-.226-.88" fill="#f3e729"/><g><path class="a" d="M25.479 47.439c.915 0 1.655.444 1.655.993v10.576c0 .548-.741.993-1.655.993s-1.654-.445-1.654-.993V48.432c-.001-.549.741-.993 1.654-.993z"/></g><g><path class="a" d="M9.545 41.268c.647.647.856 1.485.469 1.873l-7.478 7.478c-.388.388-1.226.178-1.873-.468s-.855-1.484-.468-1.872L7.677 40.8c.383-.388 1.222-.178 1.868.468z"/></g><g><path class="a" d="M42.528 41.267c.647-.647 1.485-.856 1.872-.468l7.479 7.479c.388.388.179 1.226-.469 1.872s-1.484.855-1.872.468l-7.478-7.479c-.388-.388-.175-1.228.468-1.872z"/></g></svg>