<svg xmlns="http://www.w3.org/2000/svg" width="52.074" height="60" viewBox="0 0 52.074 60"><defs><style>.a{fill:#121212;}.b{fill:#f3e729;}.c{fill:#231815;}</style></defs><g transform="translate(15.419 4.957)"><path class="a" d="M42.591,20.667H60.725c.549,0,.993.741.993,1.655s-.444,1.655-.993,1.655H42.591c-.548,0-.993-.741-.993-1.655S42.043,20.667,42.591,20.667Z" transform="translate(-41.598 -20.667)"/></g><g transform="translate(15.419)"><path class="a" d="M42.591,11.9H60.725c.549,0,.993.741.993,1.655s-.444,1.655-.993,1.655H42.591c-.548,0-.993-.741-.993-1.655S42.043,11.9,42.591,11.9Z" transform="translate(-41.598 -11.898)"/></g><path class="b" d="M36.722,29.4l-.136.523A41.073,41.073,0,0,1,32.093,40.5a16.744,16.744,0,0,0-2.342,8.569c.011,8.877,7.011,15.766,16.284,16.021a17.074,17.074,0,0,0,12.5-4.71A15.656,15.656,0,0,0,63.266,49.05a16.733,16.733,0,0,0-2.4-8.651A38.316,38.316,0,0,1,56.526,30.28L56.3,29.4" transform="translate(-21.029 -20.34)"/><g transform="translate(23.825 47.439)"><path class="a" d="M58.121,99.782c.915,0,1.655.444,1.655.993v10.576c0,.548-.741.993-1.655.993s-1.654-.445-1.654-.993V100.775C56.466,100.226,57.208,99.782,58.121,99.782Z" transform="translate(-56.467 -99.782)"/></g><g transform="translate(0 40.605)"><path class="a" d="M23.868,88.356c.647.647.856,1.485.469,1.873l-7.478,7.478c-.388.388-1.226.178-1.873-.468s-.855-1.484-.468-1.872L22,87.888C22.383,87.5,23.222,87.71,23.868,88.356Z" transform="translate(-14.323 -87.693)"/></g><g transform="translate(41.866 40.604)"><path class="a" d="M89.043,88.356c.647-.647,1.485-.856,1.872-.468l7.479,7.479c.388.388.179,1.226-.469,1.872s-1.484.855-1.872.468l-7.478-7.479C88.187,89.84,88.4,89,89.043,88.356Z" transform="translate(-88.381 -87.693)"/></g><path class="c" d="M59.393,29.4" transform="translate(-33.914 -19.504)"/></svg>